<?xml version="1.0" standalone="no"?>
<!DOCTYPE svg PUBLIC "-//W3C//DTD SVG 20010904//EN"
 "http://www.w3.org/TR/2001/REC-SVG-20010904/DTD/svg10.dtd">
<svg version="1.0" xmlns="http://www.w3.org/2000/svg"
 width="295.000000pt" height="292.000000pt" viewBox="0 0 295.000000 292.000000"
 preserveAspectRatio="xMidYMid meet">

<g transform="translate(0.000000,292.000000) scale(0.100000,-0.100000)"
fill="#000000" stroke="none">
<path d="M253 2900 c-92 -19 -177 -85 -217 -170 -19 -41 -21 -66 -24 -274 l-3
-228 33 20 c18 11 267 155 553 320 286 164 536 309 555 321 l35 21 -445 -1
c-245 -1 -464 -5 -487 -9z"/>
<path d="M775 2471 l-760 -439 0 -898 0 -899 28 -57 c32 -64 80 -111 146 -142
43 -20 65 -21 357 -24 l311 -3 1047 603 1046 603 -2 730 -3 730 -26 55 c-33
70 -79 116 -149 149 l-55 26 -590 3 -590 2 -760 -439z m1920 338 c55 -15 101
-52 128 -102 22 -41 22 -48 25 -472 l3 -430 -21 21 c-21 21 -21 27 -20 384 1
350 0 364 -21 406 -24 50 -87 105 -139 123 -25 8 -154 11 -449 11 l-413 -2
-33 32 -34 33 -64 -36 c-52 -30 -71 -35 -100 -30 -41 6 -82 -7 -142 -47 -22
-14 -56 -34 -75 -44 -19 -9 -60 -32 -90 -51 -30 -19 -61 -34 -67 -35 -7 0 -13
-3 -13 -7 0 -5 -10 -13 -23 -19 -48 -24 -112 -59 -117 -65 -3 -3 -34 -21 -69
-40 -36 -19 -71 -40 -78 -46 -8 -7 -31 -20 -51 -30 -20 -9 -43 -23 -50 -30 -8
-7 -17 -11 -22 -8 -5 3 -10 2 -12 -2 -5 -13 -108 -73 -124 -73 -8 0 -14 -4
-14 -10 0 -5 -7 -10 -15 -10 -8 0 -15 -4 -15 -8 0 -9 -37 -29 -54 -30 -5 0
-12 -4 -15 -10 -8 -12 -147 -92 -160 -92 -6 0 -11 -4 -11 -10 0 -5 -9 -10 -20
-10 -11 0 -20 -4 -20 -10 0 -5 -7 -10 -15 -10 -8 0 -15 -4 -15 -10 0 -5 -10
-10 -22 -10 -12 0 -18 -3 -15 -7 4 -4 -10 -15 -30 -24 -37 -17 -57 -9 -35 13
6 6 321 190 699 409 l688 398 550 1 c367 0 563 -4 590 -11z m-406 -584 l560
-500 1 -136 c0 -132 -6 -159 -34 -159 -6 0 -56 38 -110 85 l-99 85 -51 -29
c-28 -16 -148 -84 -266 -151 -118 -67 -219 -125 -223 -130 -5 -4 3 -61 18
-126 18 -73 24 -122 19 -131 -5 -7 -67 -46 -139 -87 l-130 -75 -16 27 c-9 15
-173 302 -364 637 -191 336 -349 612 -351 614 -3 3 -40 -13 -84 -34 -44 -21
-81 -37 -83 -34 -2 2 -20 34 -40 70 -28 51 -34 69 -24 76 6 6 75 47 152 93 77
46 148 90 158 98 9 8 19 13 21 11 2 -2 95 -168 206 -369 112 -201 239 -428
282 -505 43 -77 78 -133 78 -123 0 16 -40 255 -151 897 -50 296 -51 305 -33
319 62 45 121 80 131 79 6 -1 264 -227 572 -502z m-2139 -243 c0 -4 -9 -13
-20 -20 -16 -10 -20 -10 -20 2 0 8 6 17 13 19 19 8 27 8 27 -1z m807 -549
c317 -302 601 -570 630 -597 29 -26 53 -51 53 -55 0 -9 -195 -131 -208 -131
-5 0 -52 38 -103 85 -52 47 -96 85 -99 85 -5 0 -512 -267 -542 -285 -14 -9
-14 -20 8 -135 13 -68 21 -127 16 -131 -4 -3 -58 -34 -120 -67 -72 -39 -114
-56 -117 -49 -20 61 -258 1741 -248 1745 5 1 37 20 73 41 36 22 68 40 73 40 4
1 267 -245 584 -546z m1889 -99 c-4 -12 -10 -13 -26 -4 -21 11 -21 11 2 30 19
15 24 16 26 4 2 -8 1 -22 -2 -30z"/>
<path d="M1791 2368 c2 -8 47 -203 99 -432 52 -229 100 -416 105 -415 18 0
438 234 442 245 2 6 -126 132 -284 281 -336 315 -367 343 -362 321z"/>
<path d="M440 1625 c-1 -14 163 -859 167 -865 6 -7 463 224 463 235 0 13 -630
643 -630 630z"/>
<path d="M2185 579 c-407 -237 -793 -460 -859 -497 l-118 -67 733 -3 c806 -2
793 -3 878 58 57 42 97 108 110 184 12 71 16 756 4 756 -5 -1 -341 -194 -748
-431z"/>
</g>
</svg>
